<?xml version="1.0" encoding="UTF-8"?>
<svg id="_레이어_2" xmlns="http://www.w3.org/2000/svg" version="1.1" viewBox="0 0 588 284.1">
  <!-- Generator: Adobe Illustrator 29.6.1, SVG Export Plug-In . SVG Version: 2.1.1 Build 9)  -->
  <g id="_레이어_1-2">
    <g>
      <g>
        <path d="M23.1,165.3l-2.9,4.3c-4-1.7-6.7-4.9-8.2-8.9-1.5,4.3-4.2,7.9-8.3,9.7l-3.1-4.3c6-2.6,8.5-9,8.5-14.8v-1.4H2v-4.4h19.6v4.4h-6.9v1.4c0,5.5,2.4,11.5,8.5,14h0ZM30,177h-5.5v-34.7h5.5v34.6h0Z"/>
        <path d="M63.6,162.8h-5.4v-4.2h-7.4c-1.7,1.7-4.1,2.8-6.9,2.8-5.3,0-9.3-3.6-9.3-8.7,0-5,4-8.6,9.3-8.6s5.2,1,6.9,2.7h7.4v-4.5h5.4v20.5h0ZM63.6,177h-5.4v-8.5h-18.5v-4.3h23.9v12.7h0ZM39.8,152.7c0,2.6,1.7,4.1,4.2,4.1s4-1.4,4-4.1-1.8-4-4-4-4.2,1.4-4.2,4ZM58.2,154.3v-3.1h-5.1c0,.5.1,1,.1,1.5s0,1.1-.2,1.6h5.2Z"/>
        <path d="M89.2,165.3l-3,4.3c-3.8-1.7-6.4-5-7.9-9-1.5,4.4-4.2,8-8.2,9.9l-3.1-4.3c6-2.8,8.5-9.2,8.5-14.8v-1.4h-7.1v-4.4h19.3v4.4h-6.7v1.4c0,5.2,2.4,11.3,8.3,14h0ZM95.2,155.3h4.9v4.5h-4.9v17.2h-5.4v-34.6h5.4v13h0Z"/>
        <path d="M122.2,158.5l-2.9,4.3c-3.7-1.2-6.2-3.6-7.7-6.6-1.6,3.3-4.2,5.9-8.2,7.1l-3-4.3c6.1-1.9,8.3-6.5,8.4-11v-3.6h5.5v3.6c0,4.3,2.2,8.6,7.9,10.4h0ZM129.9,176.4h-23.9v-11.2h5.5v6.9h18.4v4.3h0ZM128.7,152.2h4.5v4.6h-4.5v10.9h-5.4v-25.3h5.4v9.8h0Z"/>
        <path d="M163.9,162.8h-5.4v-4.2h-7.4c-1.7,1.7-4.1,2.8-6.9,2.8-5.3,0-9.3-3.6-9.3-8.7,0-5,4-8.6,9.3-8.6s5.2,1,6.9,2.7h7.4v-4.5h5.4v20.5h0ZM163.9,177h-5.4v-8.5h-18.5v-4.3h23.9v12.7h0ZM140.1,152.7c0,2.6,1.7,4.1,4.1,4.1s4-1.4,4-4.1-1.8-4-4-4-4.1,1.4-4.1,4ZM158.5,154.3v-3.1h-5.1c0,.5.1,1,.1,1.5s0,1.1-.1,1.6h5.2Z"/>
        <path d="M185.1,155h-10.5v2.5c5.5,0,9.2-.2,13.3-1l.6,4.3c-4.7.9-9.1,1.1-16.4,1.1h-3v-10.9h10.6v-2.4h-10.7v-4.2h16v10.6h0ZM195.9,170.4c0,4.1-4.6,6.6-11.9,6.6s-12-2.4-12-6.6,4.6-6.8,12-6.8,11.9,2.6,11.9,6.8ZM177.4,170.4c0,1.7,2.2,2.5,6.6,2.5s6.5-.8,6.5-2.5-2.1-2.6-6.5-2.6-6.6.8-6.6,2.6ZM200.1,151.2h-4.5v2.8h4.5v4.4h-4.5v4.7h-5.4v-20.9h5.4v4.4h4.5v4.5h0Z"/>
        <path d="M223.6,165.3l-2.9,4.3c-4-1.7-6.7-4.9-8.2-8.9-1.5,4.3-4.2,7.9-8.3,9.7l-3.1-4.3c6-2.6,8.5-9,8.5-14.8v-1.4h-7.1v-4.4h19.6v4.4h-6.9v1.4c0,5.5,2.4,11.5,8.5,14h0ZM230.5,177h-5.5v-34.7h5.5v34.6h0Z"/>
        <path d="M266.4,165.3h-13.2v11.6h-5.4v-11.6h-13v-4.4h31.6v4.4ZM265.4,154.3l-2.1,4.4c-6.2-.9-10.4-3.6-12.7-7.2-2.3,3.6-6.5,6.4-12.6,7.2l-2.1-4.4c8.4-1,11.9-5.7,11.9-9.5v-1.6h5.7v1.6c0,3.9,3.5,8.5,11.9,9.5h0Z"/>
      </g>
      <g>
        <path d="M0,96V14.6h20.6v30.5l28.6-30.5h26.3l-33.1,35.1,34,46.3h-24.4l-23.6-32.6-7.8,7.8v24.7s-20.6,0-20.6,0Z"/>
        <path d="M163.5,95.9h-62.4V14.7h20.6v64h41.8v17.2h0Z"/>
        <path d="M180.6,95.9L213.1,14.7h24l32.5,81.2h-21.9l-5.4-14.5h-34.3l-5.4,14.5h-21.9ZM213.9,65.2h22.5l-11.2-30-11.2,30h0Z"/>
        <path d="M287.4,55.3c0-23.7,18.3-42.1,42.3-42.1s29.3,7.5,37.7,22l-15.6,11c-5.5-9.5-12.9-14.1-22.1-14.1s-21.4,10-21.4,23.3,9.3,23.5,21.7,23.5,16.6-5.7,21.7-13.7l15.4,10.9c-8.5,13.7-22,21.5-37.1,21.5-23.8,0-42.5-18.3-42.5-42.3h0Z"/>
        <path d="M415.7,95.9h-20.6V14.7h20.6v81.2Z"/>
      </g>
      <g>
        <path d="M3,233v-24.1h4.8v10.9l10.1-10.9h6.1l-9.3,9.8,9.8,14.3h-5.8l-7.4-11.1-3.6,3.8v7.3H3Z"/>
        <path d="M25.8,224.5c0-5,3.9-8.9,9.1-8.9s9.1,3.9,9.1,8.9-3.9,8.9-9.1,8.9-9.1-3.8-9.1-8.9ZM34.9,229.2c2.7,0,4.6-2,4.6-4.8s-1.9-4.8-4.6-4.8-4.6,2-4.6,4.8,1.9,4.8,4.6,4.8Z"/>
        <path d="M48,215.9h4.4v2.3c1-1.8,2.6-2.7,4.5-2.7s1.9.3,2.2.4l-.4,4.1c-.5-.2-1.2-.4-2.1-.4-2,0-4.1,1.1-4.1,4.6v8.8h-4.6v-17.1h0Z"/>
        <path d="M61,224.5c0-5.2,3.7-8.9,8.8-8.9s8.3,3.1,8.3,8.3,0,1.3-.2,1.9h-12.3c.3,2,2.4,3.4,4.6,3.4s3.2-.8,4.2-2.4l3.2,2.4c-1.6,2.7-4.6,4.1-7.6,4.1-5.5,0-9-3.9-9-8.9h0ZM73.8,222.8c-.2-1.9-1.8-3.4-4-3.4s-4,1.4-4.2,3.4h8.2,0Z"/>
        <path d="M80.8,228.1c0-3.2,2.9-5.5,7.5-5.5s2.5.2,3.6.6v-.4c0-1.9-1.5-3.2-3.7-3.2s-3.4,1-4.5,2.1l-2.6-2.6c1.2-1.5,3.7-3.6,7.3-3.6s8.1,2.6,8.1,6.9v10.5h-4.3v-1.9c-.9,1.4-2.7,2.3-4.8,2.3-3.9,0-6.4-2.1-6.4-5.2h0ZM85.2,227.9c0,1.3,1.1,2.1,2.8,2.1s3.9-1.5,3.9-3.6c-.8-.4-1.9-.7-3.3-.7-2.1,0-3.5.9-3.5,2.2Z"/>
        <path d="M128.5,233h-17.8v-24.1h4.8v20h13v4.1h0Z"/>
        <path d="M130.3,224.5c0-5,3.9-8.9,9.1-8.9s9.1,3.9,9.1,8.9-3.9,8.9-9.1,8.9-9.1-3.8-9.1-8.9ZM139.4,229.2c2.7,0,4.6-2,4.6-4.8s-1.9-4.8-4.6-4.8-4.6,2-4.6,4.8,1.9,4.8,4.6,4.8Z"/>
        <path d="M151.1,224.4c0-5,4-8.9,9.1-8.9s6.4,1.7,7.9,4.9l-3.5,2.2c-1-2-2.7-2.9-4.4-2.9-2.7,0-4.6,2.1-4.6,4.8s2,4.7,4.6,4.7,3.4-.9,4.6-2.9l3.3,2.3c-1.6,3.1-4.8,4.8-7.9,4.8-5.1,0-9-3.9-9-8.9h0Z"/>
        <path d="M170.6,228.1c0-3.2,2.9-5.5,7.5-5.5s2.5.2,3.6.6v-.4c0-1.9-1.5-3.2-3.7-3.2s-3.4,1-4.5,2.1l-2.6-2.6c1.2-1.5,3.7-3.6,7.3-3.6s8.1,2.6,8.1,6.9v10.5h-4.3v-1.9c-.9,1.4-2.7,2.3-4.8,2.3-3.9,0-6.4-2.1-6.4-5.2h0ZM174.9,227.9c0,1.3,1.1,2.1,2.8,2.1s3.9-1.5,3.9-3.6c-.8-.4-1.9-.7-3.3-.7-2.1,0-3.5.9-3.5,2.2Z"/>
        <path d="M195.7,233h-4.6v-25h4.6v25Z"/>
        <path d="M207.2,233l9.7-24.1h5.5l9.8,24.1h-5.1l-1.8-4.7h-11.2l-1.8,4.7h-5.1,0ZM224,224.5l-4.2-10.6-4.2,10.6h8.5Z"/>
        <path d="M236.6,226.9c1,1.6,2.8,2.6,4.5,2.6s2.4-.5,2.4-1.5-.9-1.2-3-1.7c-3.7-.8-6.4-2-6.4-5.5s2.9-5.3,6.7-5.3,5.6,1.7,6.8,3.6l-2.9,2.4c-.8-1.2-2-2.1-3.8-2.1s-2.5.5-2.5,1.4,1.1,1.2,3.2,1.7c3.8.9,6.2,2.1,6.2,5.5s-3.1,5.3-6.7,5.3-6.1-1.6-7.6-4l3.1-2.5h0Z"/>
        <path d="M253.7,226.9c1,1.6,2.8,2.6,4.5,2.6s2.4-.5,2.4-1.5-.9-1.2-3-1.7c-3.7-.8-6.4-2-6.4-5.5s2.9-5.3,6.7-5.3,5.6,1.7,6.8,3.6l-2.9,2.4c-.8-1.2-2-2.1-3.8-2.1s-2.5.5-2.5,1.4,1.1,1.2,3.2,1.7c3.8.9,6.2,2.1,6.2,5.5s-3.1,5.3-6.7,5.3-6.1-1.6-7.6-4l3.1-2.5h0Z"/>
        <path d="M267.8,224.5c0-5.2,3.7-8.9,8.8-8.9s8.3,3.1,8.3,8.3,0,1.3-.2,1.9h-12.3c.3,2,2.4,3.4,4.5,3.4s3.1-.8,4.2-2.4l3.2,2.4c-1.6,2.7-4.6,4.1-7.6,4.1-5.5,0-9-3.9-9-8.9h0ZM280.6,222.8c-.2-1.9-1.8-3.4-4-3.4s-4,1.4-4.2,3.4h8.2,0Z"/>
        <path d="M286.8,219.7v-3.8h2.9v-5.5h4.4v5.5h5.1v3.8h-5v7c0,1.8,1,2.6,2.5,2.6s1.9-.2,2.9-.6l.4,3.8c-1,.5-2.7.9-4.1.9-3.8,0-6.3-1.9-6.3-6v-7.7h-2.9Z"/>
        <path d="M1.4,264.6c0-7.1,5.3-12.4,12.4-12.4s8.4,2.3,10.8,6l-3.8,2.7c-1.6-2.7-4-4.3-7-4.3-4.4,0-7.5,3.3-7.5,8s3.2,8,7.6,8,5.3-1.4,7.3-4.2l3.5,2.6c-2.3,3.9-6.5,6-10.8,6-7,0-12.5-5.4-12.5-12.4h0Z"/>
        <path d="M26.9,268.1c0-5,3.9-8.9,9.1-8.9s9.1,3.9,9.1,8.9-3.9,8.9-9.1,8.9-9.1-3.8-9.1-8.9ZM36,272.9c2.7,0,4.6-2,4.6-4.8s-1.9-4.8-4.6-4.8-4.6,2-4.6,4.8,1.9,4.8,4.6,4.8Z"/>
        <path d="M49.1,276.7v-17.1h4.3v2c1-1.2,2.8-2.3,5.3-2.3s4.7,1.1,5.7,3c1.2-1.8,3.4-3,5.9-3,3.9,0,6.7,2.5,6.7,6.7v10.7h-4.6v-9.5c0-2.4-1.5-3.6-3.4-3.6s-3.8,1.2-3.8,3.5v9.6h-4.6v-9.5c0-2.4-1.5-3.6-3.4-3.6s-3.7,1.3-3.7,3.6v9.5h-4.6Z"/>
        <path d="M82,283.8v-24.2h4.4v2.1c1.2-1.4,3-2.4,5.7-2.4,4.8,0,8.3,3.8,8.3,9s-3.4,8.8-8.3,8.8-4.4-.9-5.6-2.1v8.9s-4.6,0-4.5,0ZM91.2,273c2.7,0,4.6-2,4.6-4.8s-1.9-4.9-4.6-4.9-4.6,2.1-4.6,4.9,2,4.8,4.6,4.8Z"/>
        <path d="M103.1,268.1c0-5.2,3.7-8.9,8.8-8.9s8.3,3.1,8.3,8.3,0,1.3-.2,1.9h-12.3c.3,2,2.4,3.4,4.6,3.4s3.2-.8,4.2-2.4l3.2,2.4c-1.6,2.7-4.6,4.1-7.6,4.1-5.5,0-9-4-9-8.9h0ZM115.8,266.5c-.2-1.9-1.8-3.4-4-3.4s-4,1.4-4.2,3.4h8.2,0Z"/>
        <path d="M122,263.4v-3.8h2.9v-5.5h4.4v5.5h5.1v3.8h-5v7c0,1.8,1,2.6,2.5,2.6s1.9-.2,2.9-.6l.4,3.8c-1.1.5-2.7.9-4.1.9-3.8,0-6.3-1.9-6.3-6v-7.7h-2.9Z"/>
        <path d="M137.1,268.1c0-5.2,3.7-8.9,8.8-8.9s8.3,3.1,8.3,8.3,0,1.3-.2,1.9h-12.3c.3,2,2.4,3.4,4.6,3.4s3.1-.8,4.2-2.4l3.2,2.4c-1.6,2.7-4.6,4.1-7.6,4.1-5.5,0-9-4-9-8.9h0ZM149.9,266.5c-.2-1.9-1.8-3.4-4-3.4s-4,1.4-4.2,3.4h8.2,0Z"/>
        <path d="M158.1,276.7v-17.1h4.3v2c1-1.2,2.8-2.3,5.3-2.3,3.9,0,6.7,2.6,6.7,6.7v10.7h-4.6v-9.5c0-2.4-1.5-3.6-3.5-3.6s-3.8,1.3-3.8,3.6v9.5h-4.6Z"/>
        <path d="M178.2,268.1c0-5,4-8.9,9.1-8.9s6.4,1.7,7.9,4.9l-3.5,2.2c-1-2-2.7-2.9-4.4-2.9-2.7,0-4.6,2.1-4.6,4.8s2,4.7,4.6,4.7,3.4-.9,4.6-3l3.3,2.3c-1.6,3.1-4.8,4.8-7.9,4.8-5.1,0-9-4-9-8.9h0Z"/>
        <path d="M196.6,259.6h5.1l4.5,12.4,4.4-12.4h5.1l-8.1,19.4c-1.4,3.3-3.5,5.1-7.1,5.1s-2.5-.4-3.2-.8l.6-3.7c.6.2,1.4.4,2.1.4,1.9,0,3.2-1.3,3.8-3.5l-7.1-17.1h0Z"/>
        <path d="M232.5,276.7h-4.8v-24.1h4.8v24.1Z"/>
        <path d="M238.1,276.7v-17.1h4.3v2c1-1.2,2.8-2.3,5.3-2.3,3.9,0,6.7,2.6,6.7,6.7v10.7h-4.6v-9.5c0-2.4-1.5-3.6-3.5-3.6s-3.8,1.3-3.8,3.6v9.5h-4.6Z"/>
        <path d="M266.5,259.3c2.7,0,4.5,1,5.6,2.4v-10h4.5v25h-4.5v-1.8c-1.2,1.3-3.1,2.2-5.6,2.2-4.8,0-8.3-3.8-8.3-8.9s3.4-8.9,8.3-8.9h0ZM262.8,268.1c0,2.7,1.9,4.8,4.6,4.8s4.6-2.1,4.6-4.8-2-4.8-4.6-4.8-4.6,2-4.6,4.8Z"/>
        <path d="M280.5,268.1c0-5.2,3.7-8.9,8.8-8.9s8.3,3.1,8.3,8.3,0,1.3-.2,1.9h-12.3c.3,2,2.4,3.4,4.5,3.4s3.1-.8,4.2-2.4l3.2,2.4c-1.6,2.7-4.6,4.1-7.6,4.1-5.5,0-9-4-9-8.9h0ZM293.4,266.5c-.2-1.9-1.8-3.4-4-3.4s-4,1.4-4.2,3.4h8.2,0Z"/>
        <path d="M305.6,268l-6.2-8.4h5.2l3.7,5.3,3.7-5.3h5.2l-6.2,8.4,6.3,8.7h-5.1l-3.9-5.7-3.9,5.7h-5.1l6.3-8.7h0Z"/>
      </g>
      <path d="M532.7,0C502.1,0,477.3,24.8,477.3,55.4s24.8,55.4,55.4,55.4,55.4-24.8,55.4-55.4S563.2,0,532.7,0ZM580.2,34l-18.5,7.7-15.3-15.3,7.7-18.5c11.6,5.2,20.9,14.6,26.1,26.1h0ZM559.7,44.2v22.4l-1.2,1.2-13.4,13.4-1.2,1.2h-22.4l-1.2-1.2-13.4-13.4-1.2-1.2v-22.4l1.2-1.2,13.4-13.4,1.2-1.2h22.4l1.2,1.2,13.4,13.4s1.2,1.2,1.2,1.2ZM532.7,3.2c6.5,0,12.7,1.2,18.5,3.4l-7.7,18.5h-21.6l-7.7-18.5c5.8-2.2,12-3.4,18.5-3.4h0ZM511.2,7.8l7.7,18.5-15.3,15.3-18.5-7.7c5.2-11.6,14.6-20.9,26.1-26.1h0ZM480.5,55.4c0-6.5,1.2-12.7,3.4-18.5l18.5,7.7v21.6l-18.5,7.7c-2.2-5.8-3.4-12-3.4-18.5ZM485.1,76.8l18.5-7.7,15.3,15.3-7.7,18.5c-11.6-5.2-20.9-14.6-26.1-26.1h0ZM532.7,107.6c-6.5,0-12.7-1.2-18.5-3.4l7.7-18.5h21.6l7.7,18.5c-5.8,2.2-12,3.4-18.5,3.4h0ZM554.1,102.9l-7.7-18.5,15.3-15.3,18.5,7.7c-5.2,11.6-14.6,20.9-26.1,26.1h0ZM562.9,66.2v-21.6l18.5-7.7c2.2,5.8,3.4,12,3.4,18.5s-1.2,12.7-3.4,18.5l-18.5-7.7Z"/>
    </g>
  </g>
</svg>