<?xml version="1.0" encoding="UTF-8"?>
<svg id="_레이어_2" data-name="레이어 2" xmlns="http://www.w3.org/2000/svg" viewBox="0 0 754.78 110.75">
  <defs>
    <style>
      .cls-1 {
        fill: #fff;
      }
    </style>
  </defs>
  <g id="_레이어_1-2" data-name="레이어 1">
    <g>
      <path class="cls-1" d="M169.09,96.02V14.64h20.61v30.55l28.61-30.55h26.34l-33.13,35.07,34.02,46.31h-24.4l-23.6-32.57-7.84,7.84v24.73h-20.61Z"/>
      <path class="cls-1" d="M332.63,95.94h-62.39V14.72h20.61v64h41.78v17.21Z"/>
      <path class="cls-1" d="M349.74,95.94l32.41-81.22h24l32.49,81.22h-21.9l-5.41-14.46h-34.26l-5.41,14.46h-21.9ZM382.95,65.23h22.47l-11.23-29.98-11.23,29.98Z"/>
      <path class="cls-1" d="M456.47,55.29c0-23.68,18.26-42.1,42.26-42.1,15.43,0,29.33,7.52,37.66,21.98l-15.6,10.99c-5.5-9.46-12.85-14.14-22.06-14.14-12.36,0-21.42,10.02-21.42,23.27s9.29,23.52,21.66,23.52c9.62,0,16.65-5.66,21.66-13.66l15.44,10.91c-8.48,13.74-21.98,21.5-37.09,21.5-23.76,0-42.51-18.26-42.51-42.26Z"/>
      <path class="cls-1" d="M584.77,95.94h-20.61V14.72h20.61v81.22Z"/>
    </g>
    <g>
      <g>
        <path class="cls-1" d="M650.07,37.67h3.94v12.25h.32c.87-1.33,2.34-4.27,7.2-4.27,6.24,0,10.64,4.95,10.64,12.84s-4.4,12.89-10.6,12.89c-4.77,0-6.38-2.94-7.25-4.31h-.46v3.81h-3.81v-33.21ZM660.99,67.85c4.72,0,7.2-4.13,7.2-9.45s-2.38-9.22-7.2-9.22-7.06,3.71-7.06,9.22,2.52,9.45,7.06,9.45Z"/>
        <path class="cls-1" d="M676.13,58.63c0-7.66,4.49-12.98,11.28-12.98,5.23,0,10.73,3.21,10.73,12.43v1.65h-18.07c.18,5.27,3.26,8.16,7.71,8.16,2.98,0,4.86-1.28,5.78-2.84h4.22c-1.19,3.76-4.86,6.33-10,6.33-7.2,0-11.65-5.09-11.65-12.75ZM694.16,56.39c0-4.17-2.66-7.25-6.74-7.25-4.31,0-7.06,3.39-7.29,7.25h14.04Z"/>
        <path class="cls-1" d="M714.16,49.28h-5.23v14.45c0,3.21,1.56,3.71,3.26,3.71.73,0,1.74-.05,2.34-.09v3.67c-.6.09-1.61.18-2.75.18-3.3,0-6.83-2.06-6.83-6.47v-15.46h-3.76v-3.3h3.76v-5.96h3.99v5.96h5.23v3.3Z"/>
        <path class="cls-1" d="M727.42,56.48c1.58-.12,5.62-.32,6.74-.37v-2.02c0-3.16-1.88-5-5.64-5-3.17,0-5.05,1.47-5.6,3.35h-4.13c.5-3.99,4.4-6.79,9.91-6.79,3.26,0,9.36.96,9.36,8.81v16.42h-3.9v-3.39h-.18c-.83,1.7-3.12,3.99-7.43,3.99-4.72,0-8.49-2.8-8.49-7.66,0-5.73,5.04-7.02,9.36-7.34ZM727.24,67.94c4.45,0,6.93-2.98,6.93-6.1v-2.52l-6.28.46c-3.58.23-5.87,1.51-5.87,4.22s2.2,3.94,5.23,3.94Z"/>
      </g>
      <path class="cls-1" d="M735.4,88.54h-83.75c-10.69,0-19.38-8.69-19.38-19.38v-27.58c0-10.69,8.69-19.38,19.38-19.38h83.75c10.69,0,19.38,8.69,19.38,19.38v27.58c0,10.69-8.69,19.38-19.38,19.38ZM651.65,25.2c-9.03,0-16.38,7.35-16.38,16.38v27.58c0,9.03,7.35,16.38,16.38,16.38h83.75c9.03,0,16.38-7.35,16.38-16.38v-27.58c0-9.03-7.35-16.38-16.38-16.38h-83.75Z"/>
    </g>
    <path class="cls-1" d="M55.37,0C24.84,0,0,24.84,0,55.37s24.84,55.37,55.37,55.37,55.37-24.84,55.37-55.37S85.9,0,55.37,0ZM102.94,33.95l-18.53,7.68-15.28-15.28,7.68-18.53c11.57,5.23,20.9,14.56,26.14,26.14ZM82.43,44.16v22.42l-1.22,1.22-13.41,13.41-1.22,1.22h-22.42l-1.22-1.22-13.41-13.41-1.22-1.22v-22.42l1.22-1.22,13.41-13.41,1.22-1.22h22.42l1.22,1.22,13.41,13.41,1.22,1.22ZM55.37,3.19c6.51,0,12.73,1.21,18.48,3.39l-7.68,18.54h-21.61l-7.68-18.54c5.75-2.19,11.98-3.39,18.48-3.39ZM33.94,7.81l7.68,18.53-15.28,15.28-18.53-7.68c5.23-11.57,14.56-20.9,26.14-26.14ZM3.19,55.37c0-6.51,1.21-12.73,3.39-18.48l18.54,7.68v21.61l-18.54,7.68c-2.19-5.75-3.39-11.98-3.39-18.49ZM7.81,76.8l18.53-7.68,15.28,15.28-7.68,18.53c-11.57-5.23-20.9-14.56-26.14-26.14ZM55.37,107.56c-6.51,0-12.74-1.21-18.48-3.39l7.68-18.54h21.61l7.68,18.54c-5.75,2.19-11.98,3.39-18.48,3.39ZM76.8,102.94l-7.68-18.54,15.28-15.28,18.53,7.68c-5.23,11.57-14.56,20.9-26.14,26.14ZM85.62,66.18v-21.61l18.54-7.68c2.19,5.75,3.39,11.98,3.39,18.48s-1.21,12.74-3.39,18.49l-18.54-7.68Z"/>
  </g>
</svg>