<?xml version="1.0" encoding="UTF-8"?>
<svg id="_레이어_2" data-name="레이어 2" xmlns="http://www.w3.org/2000/svg" viewBox="0 0 588.05 284.15">
  <defs>
    <style>
      .cls-1 {
        fill: #fff;
      }
    </style>
  </defs>
  <g id="_레이어_1-2" data-name="레이어 1">
    <g>
      <g>
        <path class="cls-1" d="M23.06,165.33l-2.91,4.27c-4.02-1.66-6.68-4.91-8.23-8.87-1.51,4.34-4.25,7.93-8.3,9.74l-3.1-4.27c6-2.64,8.53-8.98,8.53-14.84v-1.36H1.96v-4.42h19.59v4.42h-6.95v1.36c0,5.51,2.42,11.51,8.46,13.97ZM29.97,176.96h-5.47v-34.65h5.47v34.65Z"/>
        <path class="cls-1" d="M63.62,162.84h-5.4v-4.23h-7.36c-1.7,1.72-4.12,2.76-6.87,2.76-5.28,0-9.32-3.62-9.29-8.68-.04-4.98,4-8.57,9.29-8.57,2.76,0,5.17,1.02,6.87,2.72h7.36v-4.53h5.4v20.54ZM63.62,176.96h-5.4v-8.46h-18.54v-4.27h23.93v12.72ZM39.83,152.69c0,2.64,1.7,4.08,4.15,4.08,2.27,0,4.04-1.43,4.04-4.08s-1.77-3.96-4.04-3.96c-2.45,0-4.15,1.43-4.15,3.96ZM58.22,154.31v-3.13h-5.13c.06.49.11.98.11,1.51,0,.57-.06,1.09-.15,1.62h5.17Z"/>
        <path class="cls-1" d="M89.15,165.33l-3.02,4.27c-3.81-1.7-6.42-5.04-7.93-8.98-1.53,4.38-4.25,8.04-8.23,9.89l-3.13-4.3c6-2.79,8.49-9.17,8.49-14.84v-1.36h-7.06v-4.42h19.29v4.42h-6.72v1.36c-.04,5.21,2.38,11.29,8.3,13.97ZM95.19,155.29h4.91v4.49h-4.91v17.18h-5.44v-34.65h5.44v12.99Z"/>
        <path class="cls-1" d="M122.19,158.46l-2.87,4.27c-3.74-1.23-6.23-3.57-7.7-6.57-1.58,3.27-4.25,5.85-8.19,7.13l-3.02-4.27c6.12-1.85,8.34-6.49,8.38-10.99v-3.59h5.47v3.62c0,4.3,2.15,8.57,7.93,10.38ZM129.89,176.39h-23.9v-11.25h5.51v6.91h18.38v4.34ZM128.72,152.16h4.49v4.57h-4.49v10.91h-5.44v-25.29h5.44v9.82Z"/>
        <path class="cls-1" d="M163.87,162.84h-5.4v-4.23h-7.36c-1.7,1.72-4.12,2.76-6.87,2.76-5.28,0-9.32-3.62-9.29-8.68-.04-4.98,4-8.57,9.29-8.57,2.76,0,5.17,1.02,6.87,2.72h7.36v-4.53h5.4v20.54ZM163.87,176.96h-5.4v-8.46h-18.54v-4.27h23.93v12.72ZM140.09,152.69c0,2.64,1.7,4.08,4.15,4.08,2.27,0,4.04-1.43,4.04-4.08s-1.77-3.96-4.04-3.96c-2.45,0-4.15,1.43-4.15,3.96ZM158.48,154.31v-3.13h-5.13c.06.49.11.98.11,1.51,0,.57-.06,1.09-.15,1.62h5.17Z"/>
        <path class="cls-1" d="M185.1,154.99h-10.53v2.49c5.53-.06,9.23-.25,13.33-.98l.57,4.27c-4.72.94-9.14,1.13-16.35,1.13h-2.98v-10.91h10.65v-2.38h-10.68v-4.23h16.01v10.61ZM195.9,170.35c0,4.15-4.61,6.57-11.85,6.57s-12-2.42-12-6.57,4.61-6.76,12-6.76,11.85,2.57,11.85,6.76ZM177.44,170.35c-.04,1.74,2.19,2.53,6.61,2.53s6.49-.79,6.49-2.53-2.15-2.57-6.49-2.57-6.64.83-6.61,2.57ZM200.09,151.21h-4.53v2.83h4.53v4.45h-4.53v4.72h-5.44v-20.88h5.44v4.38h4.53v4.49Z"/>
        <path class="cls-1" d="M223.58,165.33l-2.91,4.27c-4.02-1.66-6.68-4.91-8.23-8.87-1.51,4.34-4.25,7.93-8.3,9.74l-3.1-4.27c6-2.64,8.53-8.98,8.53-14.84v-1.36h-7.1v-4.42h19.59v4.42h-6.95v1.36c0,5.51,2.42,11.51,8.46,13.97ZM230.49,176.96h-5.47v-34.65h5.47v34.65Z"/>
        <path class="cls-1" d="M266.4,165.33h-13.21v11.63h-5.4v-11.63h-12.99v-4.42h31.6v4.42ZM265.41,154.31l-2.11,4.38c-6.17-.85-10.44-3.59-12.68-7.21-2.27,3.62-6.49,6.36-12.61,7.21l-2.11-4.38c8.38-1.02,11.85-5.66,11.85-9.47v-1.59h5.74v1.59c0,3.85,3.47,8.46,11.93,9.47Z"/>
      </g>
      <g>
        <path class="cls-1" d="M0,96.02V14.64h20.61v30.55l28.61-30.55h26.34l-33.13,35.07,34.02,46.31h-24.4l-23.6-32.57-7.84,7.84v24.73H0Z"/>
        <path class="cls-1" d="M163.54,95.94h-62.39V14.72h20.61v64h41.78v17.21Z"/>
        <path class="cls-1" d="M180.65,95.94L213.05,14.72h24l32.49,81.22h-21.9l-5.41-14.46h-34.26l-5.41,14.46h-21.9ZM213.86,65.23h22.47l-11.23-29.98-11.23,29.98Z"/>
        <path class="cls-1" d="M287.38,55.29c0-23.68,18.26-42.1,42.26-42.1,15.43,0,29.33,7.52,37.66,21.98l-15.6,10.99c-5.5-9.46-12.85-14.14-22.06-14.14-12.36,0-21.42,10.02-21.42,23.27s9.29,23.52,21.66,23.52c9.62,0,16.65-5.66,21.66-13.66l15.44,10.91c-8.48,13.74-21.98,21.5-37.09,21.5-23.76,0-42.51-18.26-42.51-42.26Z"/>
        <path class="cls-1" d="M415.69,95.94h-20.61V14.72h20.61v81.22Z"/>
      </g>
      <g>
        <path class="cls-1" d="M3.02,233.01v-24.14h4.8v10.95l10.15-10.95h6.15l-9.3,9.81,9.85,14.33h-5.83l-7.43-11.13-3.59,3.82v7.31H3.02Z"/>
        <path class="cls-1" d="M25.82,224.48c0-5.03,3.89-8.89,9.12-8.89s9.12,3.86,9.12,8.89-3.88,8.89-9.12,8.89-9.12-3.84-9.12-8.89ZM34.94,229.24c2.68,0,4.59-2.03,4.59-4.76s-1.9-4.75-4.59-4.75-4.59,2.03-4.59,4.75,1.92,4.76,4.59,4.76Z"/>
        <path class="cls-1" d="M47.96,215.95h4.41l.09,2.33c.87-1.78,2.52-2.68,4.44-2.68,1.01,0,1.87.27,2.22.39l-.36,4.07c-.46-.16-1.21-.39-2.12-.39-2.01,0-4.12,1.08-4.12,4.6v8.75h-4.57v-17.07Z"/>
        <path class="cls-1" d="M60.99,224.46c.02-5.21,3.72-8.87,8.78-8.87,4.69,0,8.27,3.15,8.27,8.32,0,.62-.05,1.26-.16,1.94h-12.34c.34,2.01,2.38,3.41,4.55,3.41,1.69,0,3.15-.78,4.25-2.4l3.24,2.42c-1.6,2.67-4.59,4.11-7.59,4.11-5.47,0-9-3.95-9-8.92ZM73.79,222.79c-.23-1.9-1.8-3.36-3.96-3.36s-3.96,1.42-4.21,3.36h8.18Z"/>
        <path class="cls-1" d="M80.84,228.12c0-3.22,2.95-5.46,7.48-5.46,1.17,0,2.49.2,3.59.59v-.39c0-1.88-1.53-3.25-3.7-3.25-1.97,0-3.4.96-4.52,2.15l-2.61-2.61c1.16-1.49,3.68-3.56,7.27-3.56,5,0,8.11,2.65,8.11,6.92v10.51h-4.34v-1.9c-.92,1.39-2.68,2.26-4.84,2.26-3.88,0-6.45-2.08-6.45-5.24ZM85.16,227.88c0,1.28,1.1,2.1,2.84,2.1,2.19,0,3.91-1.46,3.91-3.61-.83-.37-1.92-.66-3.27-.66-2.08,0-3.48.87-3.48,2.17Z"/>
        <path class="cls-1" d="M128.49,233.01h-17.79v-24.14h4.8v20h13v4.14Z"/>
        <path class="cls-1" d="M130.27,224.48c0-5.03,3.89-8.89,9.12-8.89s9.12,3.86,9.12,8.89-3.88,8.89-9.12,8.89-9.12-3.84-9.12-8.89ZM139.39,229.24c2.68,0,4.59-2.03,4.59-4.76s-1.9-4.75-4.59-4.75-4.59,2.03-4.59,4.75,1.92,4.76,4.59,4.76Z"/>
        <path class="cls-1" d="M151.15,224.44c0-5,4.04-8.91,9.1-8.91,3.2,0,6.36,1.67,7.93,4.87l-3.47,2.2c-1-1.97-2.74-2.88-4.39-2.88-2.74,0-4.64,2.1-4.64,4.8s1.96,4.71,4.57,4.71c1.85,0,3.4-.87,4.55-2.95l3.29,2.31c-1.56,3.11-4.75,4.76-7.95,4.76-5.12,0-9-3.95-9-8.92Z"/>
        <path class="cls-1" d="M170.61,228.12c0-3.22,2.95-5.46,7.48-5.46,1.17,0,2.49.2,3.59.59v-.39c0-1.88-1.53-3.25-3.7-3.25-1.97,0-3.4.96-4.52,2.15l-2.61-2.61c1.16-1.49,3.68-3.56,7.27-3.56,5,0,8.11,2.65,8.11,6.92v10.51h-4.34v-1.9c-.92,1.39-2.68,2.26-4.84,2.26-3.88,0-6.45-2.08-6.45-5.24ZM174.93,227.88c0,1.28,1.1,2.1,2.84,2.1,2.19,0,3.91-1.46,3.91-3.61-.83-.37-1.92-.66-3.27-.66-2.08,0-3.48.87-3.48,2.17Z"/>
        <path class="cls-1" d="M195.72,233.01h-4.55v-25.03h4.55v25.03Z"/>
        <path class="cls-1" d="M207.24,233.01l9.74-24.14h5.51l9.76,24.14h-5.12l-1.78-4.73h-11.2l-1.8,4.73h-5.12ZM223.96,224.46l-4.21-10.58-4.25,10.58h8.46Z"/>
        <path class="cls-1" d="M236.63,226.93c1.03,1.6,2.77,2.63,4.5,2.63,1.37,0,2.44-.53,2.44-1.49,0-.91-.91-1.23-2.99-1.69-3.73-.83-6.36-2.03-6.36-5.53,0-3.2,2.95-5.26,6.67-5.26,3.47,0,5.62,1.71,6.84,3.56l-2.92,2.4c-.75-1.19-2.01-2.12-3.82-2.12-1.48,0-2.49.52-2.49,1.37,0,.92,1.08,1.23,3.2,1.74,3.8.92,6.22,2.15,6.22,5.53s-3.09,5.3-6.74,5.3c-3.36,0-6.06-1.55-7.61-3.96l3.06-2.47Z"/>
        <path class="cls-1" d="M253.71,226.93c1.03,1.6,2.77,2.63,4.5,2.63,1.37,0,2.44-.53,2.44-1.49,0-.91-.91-1.23-2.99-1.69-3.73-.83-6.36-2.03-6.36-5.53,0-3.2,2.95-5.26,6.67-5.26,3.47,0,5.62,1.71,6.84,3.56l-2.92,2.4c-.75-1.19-2.01-2.12-3.82-2.12-1.48,0-2.49.52-2.49,1.37,0,.92,1.08,1.23,3.2,1.74,3.8.92,6.22,2.15,6.22,5.53s-3.09,5.3-6.74,5.3c-3.36,0-6.06-1.55-7.61-3.96l3.06-2.47Z"/>
        <path class="cls-1" d="M267.8,224.46c.02-5.21,3.72-8.87,8.78-8.87,4.69,0,8.27,3.15,8.27,8.32,0,.62-.05,1.26-.16,1.94h-12.34c.34,2.01,2.38,3.41,4.55,3.41,1.69,0,3.15-.78,4.25-2.4l3.24,2.42c-1.6,2.67-4.59,4.11-7.59,4.11-5.47,0-9-3.95-9-8.92ZM280.6,222.79c-.23-1.9-1.8-3.36-3.96-3.36s-3.96,1.42-4.21,3.36h8.18Z"/>
        <path class="cls-1" d="M286.77,219.73v-3.79h2.9v-5.48h4.43v5.48h5.12v3.79h-5.01v7.02c0,1.78,1,2.56,2.52,2.56.85,0,1.94-.2,2.9-.59l.43,3.79c-1.05.52-2.74.85-4.12.85-3.75,0-6.27-1.94-6.27-5.96v-7.68h-2.88Z"/>
        <path class="cls-1" d="M1.44,264.61c0-7.06,5.33-12.43,12.39-12.43,4.44,0,8.44,2.26,10.81,6.03l-3.79,2.7c-1.62-2.67-3.95-4.28-7.02-4.28-4.39,0-7.47,3.31-7.47,7.98s3.2,7.98,7.59,7.98c2.97,0,5.3-1.35,7.31-4.16l3.54,2.56c-2.33,3.91-6.47,6.04-10.84,6.04-7.02,0-12.51-5.37-12.51-12.43Z"/>
        <path class="cls-1" d="M26.92,268.15c0-5.03,3.89-8.89,9.12-8.89s9.12,3.86,9.12,8.89-3.88,8.89-9.12,8.89-9.12-3.84-9.12-8.89ZM36.04,272.92c2.68,0,4.59-2.03,4.59-4.76s-1.9-4.75-4.59-4.75-4.59,2.03-4.59,4.75,1.92,4.76,4.59,4.76Z"/>
        <path class="cls-1" d="M49.06,276.68v-17.07h4.34l.09,1.97c.87-1.19,2.72-2.33,5.23-2.33s4.73,1.08,5.72,3.02c1.21-1.81,3.38-3.02,5.92-3.02,3.91,0,6.7,2.54,6.7,6.7v10.72h-4.57v-9.55c0-2.36-1.46-3.64-3.41-3.64s-3.75,1.23-3.75,3.54v9.65h-4.57v-9.55c0-2.36-1.48-3.64-3.39-3.64s-3.73,1.28-3.73,3.64v9.55h-4.57Z"/>
        <path class="cls-1" d="M81.99,283.79v-24.18h4.39l.09,2.06c1.12-1.42,2.88-2.42,5.62-2.42,4.83,0,8.27,3.77,8.27,8.96s-3.43,8.82-8.27,8.82c-2.51,0-4.41-.85-5.55-2.15v8.91h-4.55ZM91.16,272.95c2.7,0,4.62-2.04,4.62-4.75s-1.9-4.85-4.62-4.85-4.64,2.13-4.64,4.85,1.96,4.75,4.64,4.75Z"/>
        <path class="cls-1" d="M103.05,268.13c.02-5.21,3.72-8.87,8.78-8.87,4.69,0,8.27,3.15,8.27,8.32,0,.62-.05,1.26-.16,1.94h-12.34c.34,2.01,2.38,3.41,4.55,3.41,1.69,0,3.15-.78,4.25-2.4l3.24,2.42c-1.6,2.67-4.59,4.11-7.59,4.11-5.47,0-9-3.95-9-8.92ZM115.85,266.46c-.23-1.9-1.8-3.36-3.96-3.36s-3.96,1.42-4.21,3.36h8.18Z"/>
        <path class="cls-1" d="M122.03,263.41v-3.79h2.9v-5.48h4.43v5.48h5.12v3.79h-5.01v7.02c0,1.78,1,2.56,2.52,2.56.85,0,1.94-.2,2.9-.59l.43,3.79c-1.05.52-2.74.85-4.12.85-3.75,0-6.27-1.94-6.27-5.96v-7.68h-2.88Z"/>
        <path class="cls-1" d="M137.15,268.13c.02-5.21,3.72-8.87,8.78-8.87,4.69,0,8.27,3.15,8.27,8.32,0,.62-.05,1.26-.16,1.94h-12.34c.34,2.01,2.38,3.41,4.55,3.41,1.69,0,3.15-.78,4.25-2.4l3.24,2.42c-1.6,2.67-4.59,4.11-7.59,4.11-5.47,0-9-3.95-9-8.92ZM149.95,266.46c-.23-1.9-1.8-3.36-3.96-3.36s-3.96,1.42-4.21,3.36h8.18Z"/>
        <path class="cls-1" d="M158.14,276.68v-17.07h4.34l.09,1.97c.89-1.19,2.72-2.33,5.26-2.33,3.95,0,6.74,2.6,6.74,6.7v10.72h-4.55v-9.55c0-2.36-1.53-3.64-3.54-3.64s-3.79,1.28-3.79,3.64v9.55h-4.55Z"/>
        <path class="cls-1" d="M178.23,268.12c0-5,4.04-8.91,9.1-8.91,3.2,0,6.36,1.67,7.93,4.87l-3.47,2.2c-1-1.97-2.74-2.88-4.39-2.88-2.74,0-4.64,2.1-4.64,4.8s1.96,4.71,4.57,4.71c1.85,0,3.4-.87,4.55-2.95l3.29,2.31c-1.56,3.11-4.75,4.76-7.95,4.76-5.12,0-9-3.95-9-8.92Z"/>
        <path class="cls-1" d="M196.56,259.62h5.05l4.46,12.43,4.41-12.43h5.07l-8.05,19.39c-1.37,3.27-3.47,5.14-7.13,5.14-1.37,0-2.51-.37-3.25-.75l.57-3.66c.59.25,1.39.44,2.15.44,1.9,0,3.25-1.33,3.79-3.48l-7.06-17.08Z"/>
        <path class="cls-1" d="M232.52,276.68h-4.8v-24.14h4.8v24.14Z"/>
        <path class="cls-1" d="M238.12,276.68v-17.07h4.34l.09,1.97c.89-1.19,2.72-2.33,5.26-2.33,3.95,0,6.74,2.6,6.74,6.7v10.72h-4.55v-9.55c0-2.36-1.53-3.64-3.54-3.64s-3.79,1.28-3.79,3.64v9.55h-4.55Z"/>
        <path class="cls-1" d="M266.52,259.26c2.74,0,4.5,1,5.63,2.42v-10.03h4.48v25.03h-4.48l-.09-1.81c-1.14,1.32-3.04,2.17-5.55,2.17-4.83,0-8.27-3.75-8.27-8.91s3.43-8.87,8.27-8.87ZM262.84,268.12c0,2.7,1.9,4.83,4.62,4.83s4.64-2.13,4.64-4.83-1.96-4.76-4.64-4.76-4.62,2.01-4.62,4.76Z"/>
        <path class="cls-1" d="M280.55,268.13c.02-5.21,3.72-8.87,8.78-8.87,4.69,0,8.27,3.15,8.27,8.32,0,.62-.05,1.26-.16,1.94h-12.34c.34,2.01,2.38,3.41,4.55,3.41,1.69,0,3.15-.78,4.25-2.4l3.24,2.42c-1.6,2.67-4.59,4.11-7.59,4.11-5.47,0-9-3.95-9-8.92ZM293.35,266.46c-.23-1.9-1.8-3.36-3.96-3.36s-3.96,1.42-4.21,3.36h8.18Z"/>
        <path class="cls-1" d="M305.56,267.97l-6.22-8.35h5.24l3.72,5.26,3.7-5.26h5.23l-6.19,8.35,6.33,8.71h-5.14l-3.93-5.67-3.89,5.67h-5.12l6.28-8.71Z"/>
      </g>
      <path class="cls-1" d="M532.68,0c-30.53,0-55.37,24.84-55.37,55.37s24.84,55.37,55.37,55.37,55.37-24.84,55.37-55.37S563.21,0,532.68,0ZM580.24,33.95l-18.53,7.68-15.28-15.28,7.68-18.53c11.57,5.23,20.9,14.56,26.14,26.14ZM559.74,44.16v22.42l-1.22,1.22-13.41,13.41-1.22,1.22h-22.42l-1.22-1.22-13.41-13.41-1.22-1.22v-22.42l1.22-1.22,13.41-13.41,1.22-1.22h22.42l1.22,1.22,13.41,13.41,1.22,1.22ZM532.68,3.19c6.51,0,12.73,1.21,18.48,3.39l-7.68,18.54h-21.61l-7.68-18.54c5.75-2.19,11.98-3.39,18.48-3.39ZM511.25,7.81l7.68,18.53-15.28,15.28-18.53-7.68c5.23-11.57,14.56-20.9,26.14-26.14ZM480.49,55.37c0-6.51,1.21-12.73,3.39-18.48l18.54,7.68v21.61l-18.54,7.68c-2.19-5.75-3.39-11.98-3.39-18.49ZM485.11,76.8l18.53-7.68,15.28,15.28-7.68,18.53c-11.57-5.23-20.9-14.56-26.14-26.14ZM532.68,107.56c-6.51,0-12.74-1.21-18.48-3.39l7.68-18.54h21.61l7.68,18.54c-5.75,2.19-11.98,3.39-18.48,3.39ZM554.1,102.94l-7.68-18.54,15.28-15.28,18.53,7.68c-5.23,11.57-14.56,20.9-26.14,26.14ZM562.93,66.18v-21.61l18.54-7.68c2.19,5.75,3.39,11.98,3.39,18.48s-1.21,12.74-3.39,18.49l-18.54-7.68Z"/>
    </g>
  </g>
</svg>