<?xml version="1.0" encoding="UTF-8"?>
<svg id="_레이어_2" xmlns="http://www.w3.org/2000/svg" version="1.1" viewBox="0 0 754.8 110.8">
  <!-- Generator: Adobe Illustrator 29.6.1, SVG Export Plug-In . SVG Version: 2.1.1 Build 9)  -->
  <g id="_레이어_1-2">
    <g>
      <path d="M169.1,96V14.6h20.6v30.5l28.6-30.5h26.3l-33.1,35.1,34,46.3h-24.4l-23.6-32.6-7.8,7.8v24.7s-20.6,0-20.6,0Z"/>
      <path d="M332.6,95.9h-62.4V14.7h20.6v64h41.8v17.2h0Z"/>
      <path d="M349.7,95.9l32.4-81.2h24l32.5,81.2h-21.9l-5.4-14.5h-34.3l-5.4,14.5h-21.9ZM383,65.2h22.5l-11.2-30-11.2,30h0Z"/>
      <path d="M456.5,55.3c0-23.7,18.3-42.1,42.3-42.1s29.3,7.5,37.7,22l-15.6,11c-5.5-9.5-12.9-14.1-22.1-14.1s-21.4,10-21.4,23.3,9.3,23.5,21.7,23.5,16.7-5.7,21.7-13.7l15.4,10.9c-8.5,13.7-22,21.5-37.1,21.5-23.8,0-42.5-18.3-42.5-42.3h0Z"/>
      <path d="M584.8,95.9h-20.6V14.7h20.6v81.2Z"/>
    </g>
    <g>
      <g>
        <path d="M650.1,37.7h3.9v12.2h.3c.9-1.3,2.3-4.3,7.2-4.3s10.6,5,10.6,12.8-4.4,12.9-10.6,12.9-6.4-2.9-7.2-4.3h-.5v3.8h-3.8v-33.2h0ZM661,67.8c4.7,0,7.2-4.1,7.2-9.5s-2.4-9.2-7.2-9.2-7.1,3.7-7.1,9.2,2.5,9.5,7.1,9.5Z"/>
        <path d="M676.1,58.6c0-7.7,4.5-13,11.3-13s10.7,3.2,10.7,12.4v1.7h-18.1c.2,5.3,3.3,8.2,7.7,8.2s4.9-1.3,5.8-2.8h4.2c-1.2,3.8-4.9,6.3-10,6.3s-11.7-5.1-11.7-12.8ZM694.2,56.4c0-4.2-2.7-7.2-6.7-7.2s-7.1,3.4-7.3,7.2h14,0Z"/>
        <path d="M714.2,49.3h-5.2v14.5c0,3.2,1.6,3.7,3.3,3.7s1.7,0,2.3,0v3.7c-.6,0-1.6.2-2.8.2-3.3,0-6.8-2.1-6.8-6.5v-15.5h-3.8v-3.3h3.8v-6h4v6h5.2v3.3h0Z"/>
        <path d="M727.4,56.5c1.6-.1,5.6-.3,6.7-.4v-2c0-3.2-1.9-5-5.6-5s-5,1.5-5.6,3.3h-4.1c.5-4,4.4-6.8,9.9-6.8s9.4,1,9.4,8.8v16.4h-3.9v-3.4h-.2c-.8,1.7-3.1,4-7.4,4s-8.5-2.8-8.5-7.7,5-7,9.4-7.3h0ZM727.2,67.9c4.5,0,6.9-3,6.9-6.1v-2.5l-6.3.5c-3.6.2-5.9,1.5-5.9,4.2s2.2,3.9,5.2,3.9h0Z"/>
      </g>
      <path d="M735.4,88.5h-83.8c-10.7,0-19.4-8.7-19.4-19.4v-27.6c0-10.7,8.7-19.4,19.4-19.4h83.8c10.7,0,19.4,8.7,19.4,19.4v27.6c0,10.7-8.7,19.4-19.4,19.4ZM651.7,25.2c-9,0-16.4,7.3-16.4,16.4v27.6c0,9,7.3,16.4,16.4,16.4h83.8c9,0,16.4-7.3,16.4-16.4v-27.6c0-9-7.3-16.4-16.4-16.4,0,0-83.8,0-83.8,0Z"/>
    </g>
    <path d="M55.4,0C24.8,0,0,24.8,0,55.4s24.8,55.4,55.4,55.4,55.4-24.8,55.4-55.4S85.9,0,55.4,0ZM102.9,34l-18.5,7.7-15.3-15.3,7.7-18.5c11.6,5.2,20.9,14.6,26.1,26.1h0ZM82.4,44.2v22.4l-1.2,1.2-13.4,13.4-1.2,1.2h-22.4l-1.2-1.2-13.4-13.4-1.2-1.2v-22.4l1.2-1.2,13.4-13.4,1.2-1.2h22.4l1.2,1.2,13.4,13.4s1.2,1.2,1.2,1.2ZM55.4,3.2c6.5,0,12.7,1.2,18.5,3.4l-7.7,18.5h-21.6l-7.7-18.5c5.8-2.2,12-3.4,18.5-3.4h0ZM33.9,7.8l7.7,18.5-15.3,15.3-18.5-7.7c5.2-11.6,14.6-20.9,26.1-26.1h0ZM3.2,55.4c0-6.5,1.2-12.7,3.4-18.5l18.5,7.7v21.6l-18.5,7.7c-2.2-5.8-3.4-12-3.4-18.5ZM7.8,76.8l18.5-7.7,15.3,15.3-7.7,18.5c-11.6-5.2-20.9-14.6-26.1-26.1h0ZM55.4,107.6c-6.5,0-12.7-1.2-18.5-3.4l7.7-18.5h21.6l7.7,18.5c-5.8,2.2-12,3.4-18.5,3.4h0ZM76.8,102.9l-7.7-18.5,15.3-15.3,18.5,7.7c-5.2,11.6-14.6,20.9-26.1,26.1h0ZM85.6,66.2v-21.6l18.5-7.7c2.2,5.8,3.4,12,3.4,18.5s-1.2,12.7-3.4,18.5l-18.5-7.7Z"/>
  </g>
</svg>